<mxfile host="Electron" agent="Mozilla/5.0 (Windows NT 10.0; Win64; x64) AppleWebKit/537.36 (KHTML, like Gecko) draw.io/24.7.17 Chrome/128.0.6613.36 Electron/32.0.1 Safari/537.36" version="24.7.17">
  <diagram name="Page-1" id="G9oKpywROup8E18xyZtT">
    <mxGraphModel dx="1434" dy="844" grid="1" gridSize="10" guides="1" tooltips="1" connect="1" arrows="1" fold="1" page="1" pageScale="1" pageWidth="850" pageHeight="1100" math="0" shadow="0">
      <root>
        <mxCell id="0" />
        <mxCell id="1" parent="0" />
        <mxCell id="BkuPUITBIhkEGpFQvbkD-9" value="Model" style="verticalAlign=top;align=left;spacingTop=8;spacingLeft=2;spacingRight=12;shape=cube;size=10;direction=south;fontStyle=4;html=1;whiteSpace=wrap;" vertex="1" parent="1">
          <mxGeometry x="210" y="460" width="490" height="480" as="geometry" />
        </mxCell>
        <mxCell id="BkuPUITBIhkEGpFQvbkD-10" value="UserModel" style="swimlane;fontStyle=1;align=center;verticalAlign=top;childLayout=stackLayout;horizontal=1;startSize=26;horizontalStack=0;resizeParent=1;resizeParentMax=0;resizeLast=0;collapsible=1;marginBottom=0;whiteSpace=wrap;html=1;" vertex="1" parent="1">
          <mxGeometry x="240" y="508" width="160" height="216" as="geometry" />
        </mxCell>
        <mxCell id="BkuPUITBIhkEGpFQvbkD-11" value="+ email: str" style="text;strokeColor=none;fillColor=none;align=left;verticalAlign=top;spacingLeft=4;spacingRight=4;overflow=hidden;rotatable=0;points=[[0,0.5],[1,0.5]];portConstraint=eastwest;whiteSpace=wrap;html=1;" vertex="1" parent="BkuPUITBIhkEGpFQvbkD-10">
          <mxGeometry y="26" width="160" height="26" as="geometry" />
        </mxCell>
        <mxCell id="BkuPUITBIhkEGpFQvbkD-48" value="+ password: str" style="text;strokeColor=none;fillColor=none;align=left;verticalAlign=top;spacingLeft=4;spacingRight=4;overflow=hidden;rotatable=0;points=[[0,0.5],[1,0.5]];portConstraint=eastwest;whiteSpace=wrap;html=1;" vertex="1" parent="BkuPUITBIhkEGpFQvbkD-10">
          <mxGeometry y="52" width="160" height="26" as="geometry" />
        </mxCell>
        <mxCell id="BkuPUITBIhkEGpFQvbkD-49" value="+ name: str" style="text;strokeColor=none;fillColor=none;align=left;verticalAlign=top;spacingLeft=4;spacingRight=4;overflow=hidden;rotatable=0;points=[[0,0.5],[1,0.5]];portConstraint=eastwest;whiteSpace=wrap;html=1;" vertex="1" parent="BkuPUITBIhkEGpFQvbkD-10">
          <mxGeometry y="78" width="160" height="26" as="geometry" />
        </mxCell>
        <mxCell id="BkuPUITBIhkEGpFQvbkD-50" value="+ profession: str" style="text;strokeColor=none;fillColor=none;align=left;verticalAlign=top;spacingLeft=4;spacingRight=4;overflow=hidden;rotatable=0;points=[[0,0.5],[1,0.5]];portConstraint=eastwest;whiteSpace=wrap;html=1;" vertex="1" parent="BkuPUITBIhkEGpFQvbkD-10">
          <mxGeometry y="104" width="160" height="26" as="geometry" />
        </mxCell>
        <mxCell id="BkuPUITBIhkEGpFQvbkD-52" value="+ monthlyIncome: float" style="text;strokeColor=none;fillColor=none;align=left;verticalAlign=top;spacingLeft=4;spacingRight=4;overflow=hidden;rotatable=0;points=[[0,0.5],[1,0.5]];portConstraint=eastwest;whiteSpace=wrap;html=1;" vertex="1" parent="BkuPUITBIhkEGpFQvbkD-10">
          <mxGeometry y="130" width="160" height="26" as="geometry" />
        </mxCell>
        <mxCell id="BkuPUITBIhkEGpFQvbkD-12" value="" style="line;strokeWidth=1;fillColor=none;align=left;verticalAlign=middle;spacingTop=-1;spacingLeft=3;spacingRight=3;rotatable=0;labelPosition=right;points=[];portConstraint=eastwest;strokeColor=inherit;" vertex="1" parent="BkuPUITBIhkEGpFQvbkD-10">
          <mxGeometry y="156" width="160" height="8" as="geometry" />
        </mxCell>
        <mxCell id="BkuPUITBIhkEGpFQvbkD-13" value="+ to_dict_create(): dict" style="text;strokeColor=none;fillColor=none;align=left;verticalAlign=top;spacingLeft=4;spacingRight=4;overflow=hidden;rotatable=0;points=[[0,0.5],[1,0.5]];portConstraint=eastwest;whiteSpace=wrap;html=1;" vertex="1" parent="BkuPUITBIhkEGpFQvbkD-10">
          <mxGeometry y="164" width="160" height="26" as="geometry" />
        </mxCell>
        <mxCell id="BkuPUITBIhkEGpFQvbkD-54" value="+ to_dict(): dict" style="text;strokeColor=none;fillColor=none;align=left;verticalAlign=top;spacingLeft=4;spacingRight=4;overflow=hidden;rotatable=0;points=[[0,0.5],[1,0.5]];portConstraint=eastwest;whiteSpace=wrap;html=1;" vertex="1" parent="BkuPUITBIhkEGpFQvbkD-10">
          <mxGeometry y="190" width="160" height="26" as="geometry" />
        </mxCell>
        <mxCell id="BkuPUITBIhkEGpFQvbkD-14" value="FinancialPaymentsModel" style="swimlane;fontStyle=1;align=center;verticalAlign=top;childLayout=stackLayout;horizontal=1;startSize=26;horizontalStack=0;resizeParent=1;resizeParentMax=0;resizeLast=0;collapsible=1;marginBottom=0;whiteSpace=wrap;html=1;" vertex="1" parent="1">
          <mxGeometry x="485" y="508" width="160" height="138" as="geometry" />
        </mxCell>
        <mxCell id="BkuPUITBIhkEGpFQvbkD-15" value="+ idUser: str" style="text;strokeColor=none;fillColor=none;align=left;verticalAlign=top;spacingLeft=4;spacingRight=4;overflow=hidden;rotatable=0;points=[[0,0.5],[1,0.5]];portConstraint=eastwest;whiteSpace=wrap;html=1;" vertex="1" parent="BkuPUITBIhkEGpFQvbkD-14">
          <mxGeometry y="26" width="160" height="26" as="geometry" />
        </mxCell>
        <mxCell id="BkuPUITBIhkEGpFQvbkD-55" value="+ typeAccount: str" style="text;strokeColor=none;fillColor=none;align=left;verticalAlign=top;spacingLeft=4;spacingRight=4;overflow=hidden;rotatable=0;points=[[0,0.5],[1,0.5]];portConstraint=eastwest;whiteSpace=wrap;html=1;" vertex="1" parent="BkuPUITBIhkEGpFQvbkD-14">
          <mxGeometry y="52" width="160" height="26" as="geometry" />
        </mxCell>
        <mxCell id="BkuPUITBIhkEGpFQvbkD-56" value="+ meta: float" style="text;strokeColor=none;fillColor=none;align=left;verticalAlign=top;spacingLeft=4;spacingRight=4;overflow=hidden;rotatable=0;points=[[0,0.5],[1,0.5]];portConstraint=eastwest;whiteSpace=wrap;html=1;" vertex="1" parent="BkuPUITBIhkEGpFQvbkD-14">
          <mxGeometry y="78" width="160" height="26" as="geometry" />
        </mxCell>
        <mxCell id="BkuPUITBIhkEGpFQvbkD-16" value="" style="line;strokeWidth=1;fillColor=none;align=left;verticalAlign=middle;spacingTop=-1;spacingLeft=3;spacingRight=3;rotatable=0;labelPosition=right;points=[];portConstraint=eastwest;strokeColor=inherit;" vertex="1" parent="BkuPUITBIhkEGpFQvbkD-14">
          <mxGeometry y="104" width="160" height="8" as="geometry" />
        </mxCell>
        <mxCell id="BkuPUITBIhkEGpFQvbkD-17" value="+ to_dict(): dict" style="text;strokeColor=none;fillColor=none;align=left;verticalAlign=top;spacingLeft=4;spacingRight=4;overflow=hidden;rotatable=0;points=[[0,0.5],[1,0.5]];portConstraint=eastwest;whiteSpace=wrap;html=1;" vertex="1" parent="BkuPUITBIhkEGpFQvbkD-14">
          <mxGeometry y="112" width="160" height="26" as="geometry" />
        </mxCell>
        <mxCell id="BkuPUITBIhkEGpFQvbkD-18" value="FinancialAccountsModel" style="swimlane;fontStyle=1;align=center;verticalAlign=top;childLayout=stackLayout;horizontal=1;startSize=26;horizontalStack=0;resizeParent=1;resizeParentMax=0;resizeLast=0;collapsible=1;marginBottom=0;whiteSpace=wrap;html=1;" vertex="1" parent="1">
          <mxGeometry x="360" y="770" width="160" height="138" as="geometry" />
        </mxCell>
        <mxCell id="BkuPUITBIhkEGpFQvbkD-19" value="+ idUser: str" style="text;strokeColor=none;fillColor=none;align=left;verticalAlign=top;spacingLeft=4;spacingRight=4;overflow=hidden;rotatable=0;points=[[0,0.5],[1,0.5]];portConstraint=eastwest;whiteSpace=wrap;html=1;" vertex="1" parent="BkuPUITBIhkEGpFQvbkD-18">
          <mxGeometry y="26" width="160" height="26" as="geometry" />
        </mxCell>
        <mxCell id="BkuPUITBIhkEGpFQvbkD-57" value="+ name_account: str" style="text;strokeColor=none;fillColor=none;align=left;verticalAlign=top;spacingLeft=4;spacingRight=4;overflow=hidden;rotatable=0;points=[[0,0.5],[1,0.5]];portConstraint=eastwest;whiteSpace=wrap;html=1;" vertex="1" parent="BkuPUITBIhkEGpFQvbkD-18">
          <mxGeometry y="52" width="160" height="26" as="geometry" />
        </mxCell>
        <mxCell id="BkuPUITBIhkEGpFQvbkD-58" value="+ data_account: dict" style="text;strokeColor=none;fillColor=none;align=left;verticalAlign=top;spacingLeft=4;spacingRight=4;overflow=hidden;rotatable=0;points=[[0,0.5],[1,0.5]];portConstraint=eastwest;whiteSpace=wrap;html=1;" vertex="1" parent="BkuPUITBIhkEGpFQvbkD-18">
          <mxGeometry y="78" width="160" height="26" as="geometry" />
        </mxCell>
        <mxCell id="BkuPUITBIhkEGpFQvbkD-20" value="" style="line;strokeWidth=1;fillColor=none;align=left;verticalAlign=middle;spacingTop=-1;spacingLeft=3;spacingRight=3;rotatable=0;labelPosition=right;points=[];portConstraint=eastwest;strokeColor=inherit;" vertex="1" parent="BkuPUITBIhkEGpFQvbkD-18">
          <mxGeometry y="104" width="160" height="8" as="geometry" />
        </mxCell>
        <mxCell id="BkuPUITBIhkEGpFQvbkD-21" value="+ to_dict(): dict" style="text;strokeColor=none;fillColor=none;align=left;verticalAlign=top;spacingLeft=4;spacingRight=4;overflow=hidden;rotatable=0;points=[[0,0.5],[1,0.5]];portConstraint=eastwest;whiteSpace=wrap;html=1;" vertex="1" parent="BkuPUITBIhkEGpFQvbkD-18">
          <mxGeometry y="112" width="160" height="26" as="geometry" />
        </mxCell>
        <mxCell id="BkuPUITBIhkEGpFQvbkD-26" value="Config" style="verticalAlign=top;align=left;spacingTop=8;spacingLeft=2;spacingRight=12;shape=cube;size=10;direction=south;fontStyle=4;html=1;whiteSpace=wrap;" vertex="1" parent="1">
          <mxGeometry x="2020" y="450" width="480" height="414" as="geometry" />
        </mxCell>
        <mxCell id="BkuPUITBIhkEGpFQvbkD-27" value="FirebaseService" style="swimlane;fontStyle=1;align=center;verticalAlign=top;childLayout=stackLayout;horizontal=1;startSize=26;horizontalStack=0;resizeParent=1;resizeParentMax=0;resizeLast=0;collapsible=1;marginBottom=0;whiteSpace=wrap;html=1;" vertex="1" parent="1">
          <mxGeometry x="2061.25" y="504" width="397.5" height="320" as="geometry" />
        </mxCell>
        <mxCell id="BkuPUITBIhkEGpFQvbkD-28" value="+ config: dict[str, str]" style="text;strokeColor=none;fillColor=none;align=left;verticalAlign=top;spacingLeft=4;spacingRight=4;overflow=hidden;rotatable=0;points=[[0,0.5],[1,0.5]];portConstraint=eastwest;whiteSpace=wrap;html=1;" vertex="1" parent="BkuPUITBIhkEGpFQvbkD-27">
          <mxGeometry y="26" width="397.5" height="26" as="geometry" />
        </mxCell>
        <mxCell id="BkuPUITBIhkEGpFQvbkD-60" value="+ firebase: Firebase" style="text;strokeColor=none;fillColor=none;align=left;verticalAlign=top;spacingLeft=4;spacingRight=4;overflow=hidden;rotatable=0;points=[[0,0.5],[1,0.5]];portConstraint=eastwest;whiteSpace=wrap;html=1;" vertex="1" parent="BkuPUITBIhkEGpFQvbkD-27">
          <mxGeometry y="52" width="397.5" height="26" as="geometry" />
        </mxCell>
        <mxCell id="BkuPUITBIhkEGpFQvbkD-59" value="+ auth: Auth" style="text;strokeColor=none;fillColor=none;align=left;verticalAlign=top;spacingLeft=4;spacingRight=4;overflow=hidden;rotatable=0;points=[[0,0.5],[1,0.5]];portConstraint=eastwest;whiteSpace=wrap;html=1;" vertex="1" parent="BkuPUITBIhkEGpFQvbkD-27">
          <mxGeometry y="78" width="397.5" height="26" as="geometry" />
        </mxCell>
        <mxCell id="BkuPUITBIhkEGpFQvbkD-61" value="+ db: Database" style="text;strokeColor=none;fillColor=none;align=left;verticalAlign=top;spacingLeft=4;spacingRight=4;overflow=hidden;rotatable=0;points=[[0,0.5],[1,0.5]];portConstraint=eastwest;whiteSpace=wrap;html=1;" vertex="1" parent="BkuPUITBIhkEGpFQvbkD-27">
          <mxGeometry y="104" width="397.5" height="26" as="geometry" />
        </mxCell>
        <mxCell id="BkuPUITBIhkEGpFQvbkD-29" value="" style="line;strokeWidth=1;fillColor=none;align=left;verticalAlign=middle;spacingTop=-1;spacingLeft=3;spacingRight=3;rotatable=0;labelPosition=right;points=[];portConstraint=eastwest;strokeColor=inherit;" vertex="1" parent="BkuPUITBIhkEGpFQvbkD-27">
          <mxGeometry y="130" width="397.5" height="8" as="geometry" />
        </mxCell>
        <mxCell id="BkuPUITBIhkEGpFQvbkD-30" value="+ get_auth(): Auth" style="text;strokeColor=none;fillColor=none;align=left;verticalAlign=top;spacingLeft=4;spacingRight=4;overflow=hidden;rotatable=0;points=[[0,0.5],[1,0.5]];portConstraint=eastwest;whiteSpace=wrap;html=1;" vertex="1" parent="BkuPUITBIhkEGpFQvbkD-27">
          <mxGeometry y="138" width="397.5" height="26" as="geometry" />
        </mxCell>
        <mxCell id="BkuPUITBIhkEGpFQvbkD-62" value="+ get_db(): Database" style="text;strokeColor=none;fillColor=none;align=left;verticalAlign=top;spacingLeft=4;spacingRight=4;overflow=hidden;rotatable=0;points=[[0,0.5],[1,0.5]];portConstraint=eastwest;whiteSpace=wrap;html=1;" vertex="1" parent="BkuPUITBIhkEGpFQvbkD-27">
          <mxGeometry y="164" width="397.5" height="26" as="geometry" />
        </mxCell>
        <mxCell id="BkuPUITBIhkEGpFQvbkD-63" value="+ add_document(collection: str, doc_id: str, data: dict): None" style="text;strokeColor=none;fillColor=none;align=left;verticalAlign=top;spacingLeft=4;spacingRight=4;overflow=hidden;rotatable=0;points=[[0,0.5],[1,0.5]];portConstraint=eastwest;whiteSpace=wrap;html=1;" vertex="1" parent="BkuPUITBIhkEGpFQvbkD-27">
          <mxGeometry y="190" width="397.5" height="26" as="geometry" />
        </mxCell>
        <mxCell id="BkuPUITBIhkEGpFQvbkD-64" value="+ get_document(collection: str, doc_id: str): PyreResponse" style="text;strokeColor=none;fillColor=none;align=left;verticalAlign=top;spacingLeft=4;spacingRight=4;overflow=hidden;rotatable=0;points=[[0,0.5],[1,0.5]];portConstraint=eastwest;whiteSpace=wrap;html=1;" vertex="1" parent="BkuPUITBIhkEGpFQvbkD-27">
          <mxGeometry y="216" width="397.5" height="26" as="geometry" />
        </mxCell>
        <mxCell id="BkuPUITBIhkEGpFQvbkD-65" value="+ update_document(collection: str, doc_id: str, data: dict): None" style="text;strokeColor=none;fillColor=none;align=left;verticalAlign=top;spacingLeft=4;spacingRight=4;overflow=hidden;rotatable=0;points=[[0,0.5],[1,0.5]];portConstraint=eastwest;whiteSpace=wrap;html=1;" vertex="1" parent="BkuPUITBIhkEGpFQvbkD-27">
          <mxGeometry y="242" width="397.5" height="26" as="geometry" />
        </mxCell>
        <mxCell id="BkuPUITBIhkEGpFQvbkD-66" value="+ delete_document(collection: str, doc_id: str): None" style="text;strokeColor=none;fillColor=none;align=left;verticalAlign=top;spacingLeft=4;spacingRight=4;overflow=hidden;rotatable=0;points=[[0,0.5],[1,0.5]];portConstraint=eastwest;whiteSpace=wrap;html=1;" vertex="1" parent="BkuPUITBIhkEGpFQvbkD-27">
          <mxGeometry y="268" width="397.5" height="26" as="geometry" />
        </mxCell>
        <mxCell id="BkuPUITBIhkEGpFQvbkD-67" value="+ remove_item_in_document(collection: str, doc_id: str, item: str): None" style="text;strokeColor=none;fillColor=none;align=left;verticalAlign=top;spacingLeft=4;spacingRight=4;overflow=hidden;rotatable=0;points=[[0,0.5],[1,0.5]];portConstraint=eastwest;whiteSpace=wrap;html=1;" vertex="1" parent="BkuPUITBIhkEGpFQvbkD-27">
          <mxGeometry y="294" width="397.5" height="26" as="geometry" />
        </mxCell>
        <mxCell id="BkuPUITBIhkEGpFQvbkD-31" value="Controller" style="verticalAlign=top;align=left;spacingTop=8;spacingLeft=2;spacingRight=12;shape=cube;size=10;direction=south;fontStyle=4;html=1;whiteSpace=wrap;" vertex="1" parent="1">
          <mxGeometry x="850" y="150" width="1030" height="922" as="geometry" />
        </mxCell>
        <mxCell id="BkuPUITBIhkEGpFQvbkD-32" value="FinancialAccountsController" style="swimlane;fontStyle=1;align=center;verticalAlign=top;childLayout=stackLayout;horizontal=1;startSize=26;horizontalStack=0;resizeParent=1;resizeParentMax=0;resizeLast=0;collapsible=1;marginBottom=0;whiteSpace=wrap;html=1;" vertex="1" parent="1">
          <mxGeometry x="1410" y="830" width="360" height="216" as="geometry" />
        </mxCell>
        <mxCell id="BkuPUITBIhkEGpFQvbkD-33" value="+ idUser: str" style="text;strokeColor=none;fillColor=none;align=left;verticalAlign=top;spacingLeft=4;spacingRight=4;overflow=hidden;rotatable=0;points=[[0,0.5],[1,0.5]];portConstraint=eastwest;whiteSpace=wrap;html=1;" vertex="1" parent="BkuPUITBIhkEGpFQvbkD-32">
          <mxGeometry y="26" width="360" height="26" as="geometry" />
        </mxCell>
        <mxCell id="BkuPUITBIhkEGpFQvbkD-84" value="+ nameAccount: str" style="text;strokeColor=none;fillColor=none;align=left;verticalAlign=top;spacingLeft=4;spacingRight=4;overflow=hidden;rotatable=0;points=[[0,0.5],[1,0.5]];portConstraint=eastwest;whiteSpace=wrap;html=1;" vertex="1" parent="BkuPUITBIhkEGpFQvbkD-32">
          <mxGeometry y="52" width="360" height="26" as="geometry" />
        </mxCell>
        <mxCell id="BkuPUITBIhkEGpFQvbkD-83" value="+ dataAccount: dict" style="text;strokeColor=none;fillColor=none;align=left;verticalAlign=top;spacingLeft=4;spacingRight=4;overflow=hidden;rotatable=0;points=[[0,0.5],[1,0.5]];portConstraint=eastwest;whiteSpace=wrap;html=1;" vertex="1" parent="BkuPUITBIhkEGpFQvbkD-32">
          <mxGeometry y="78" width="360" height="26" as="geometry" />
        </mxCell>
        <mxCell id="BkuPUITBIhkEGpFQvbkD-87" value="+ firebaseService: FirebaseService" style="text;strokeColor=none;fillColor=none;align=left;verticalAlign=top;spacingLeft=4;spacingRight=4;overflow=hidden;rotatable=0;points=[[0,0.5],[1,0.5]];portConstraint=eastwest;whiteSpace=wrap;html=1;" vertex="1" parent="BkuPUITBIhkEGpFQvbkD-32">
          <mxGeometry y="104" width="360" height="26" as="geometry" />
        </mxCell>
        <mxCell id="BkuPUITBIhkEGpFQvbkD-34" value="" style="line;strokeWidth=1;fillColor=none;align=left;verticalAlign=middle;spacingTop=-1;spacingLeft=3;spacingRight=3;rotatable=0;labelPosition=right;points=[];portConstraint=eastwest;strokeColor=inherit;" vertex="1" parent="BkuPUITBIhkEGpFQvbkD-32">
          <mxGeometry y="130" width="360" height="8" as="geometry" />
        </mxCell>
        <mxCell id="BkuPUITBIhkEGpFQvbkD-35" value="+ add_account(typeAccount: str): None" style="text;strokeColor=none;fillColor=none;align=left;verticalAlign=top;spacingLeft=4;spacingRight=4;overflow=hidden;rotatable=0;points=[[0,0.5],[1,0.5]];portConstraint=eastwest;whiteSpace=wrap;html=1;" vertex="1" parent="BkuPUITBIhkEGpFQvbkD-32">
          <mxGeometry y="138" width="360" height="26" as="geometry" />
        </mxCell>
        <mxCell id="BkuPUITBIhkEGpFQvbkD-85" value="+ update_account(typeAccount: str): None" style="text;strokeColor=none;fillColor=none;align=left;verticalAlign=top;spacingLeft=4;spacingRight=4;overflow=hidden;rotatable=0;points=[[0,0.5],[1,0.5]];portConstraint=eastwest;whiteSpace=wrap;html=1;" vertex="1" parent="BkuPUITBIhkEGpFQvbkD-32">
          <mxGeometry y="164" width="360" height="26" as="geometry" />
        </mxCell>
        <mxCell id="BkuPUITBIhkEGpFQvbkD-86" value="+ delete_account(typeAccount: str): None" style="text;strokeColor=none;fillColor=none;align=left;verticalAlign=top;spacingLeft=4;spacingRight=4;overflow=hidden;rotatable=0;points=[[0,0.5],[1,0.5]];portConstraint=eastwest;whiteSpace=wrap;html=1;" vertex="1" parent="BkuPUITBIhkEGpFQvbkD-32">
          <mxGeometry y="190" width="360" height="26" as="geometry" />
        </mxCell>
        <mxCell id="BkuPUITBIhkEGpFQvbkD-36" value="UserController" style="swimlane;fontStyle=1;align=center;verticalAlign=top;childLayout=stackLayout;horizontal=1;startSize=26;horizontalStack=0;resizeParent=1;resizeParentMax=0;resizeLast=0;collapsible=1;marginBottom=0;whiteSpace=wrap;html=1;" vertex="1" parent="1">
          <mxGeometry x="941" y="185" width="360" height="372" as="geometry" />
        </mxCell>
        <mxCell id="BkuPUITBIhkEGpFQvbkD-37" value="+ email: str" style="text;strokeColor=none;fillColor=none;align=left;verticalAlign=top;spacingLeft=4;spacingRight=4;overflow=hidden;rotatable=0;points=[[0,0.5],[1,0.5]];portConstraint=eastwest;whiteSpace=wrap;html=1;" vertex="1" parent="BkuPUITBIhkEGpFQvbkD-36">
          <mxGeometry y="26" width="360" height="26" as="geometry" />
        </mxCell>
        <mxCell id="BkuPUITBIhkEGpFQvbkD-68" value="+ password: str" style="text;strokeColor=none;fillColor=none;align=left;verticalAlign=top;spacingLeft=4;spacingRight=4;overflow=hidden;rotatable=0;points=[[0,0.5],[1,0.5]];portConstraint=eastwest;whiteSpace=wrap;html=1;" vertex="1" parent="BkuPUITBIhkEGpFQvbkD-36">
          <mxGeometry y="52" width="360" height="26" as="geometry" />
        </mxCell>
        <mxCell id="BkuPUITBIhkEGpFQvbkD-69" value="+ name: str" style="text;strokeColor=none;fillColor=none;align=left;verticalAlign=top;spacingLeft=4;spacingRight=4;overflow=hidden;rotatable=0;points=[[0,0.5],[1,0.5]];portConstraint=eastwest;whiteSpace=wrap;html=1;" vertex="1" parent="BkuPUITBIhkEGpFQvbkD-36">
          <mxGeometry y="78" width="360" height="26" as="geometry" />
        </mxCell>
        <mxCell id="BkuPUITBIhkEGpFQvbkD-70" value="+ profession: str" style="text;strokeColor=none;fillColor=none;align=left;verticalAlign=top;spacingLeft=4;spacingRight=4;overflow=hidden;rotatable=0;points=[[0,0.5],[1,0.5]];portConstraint=eastwest;whiteSpace=wrap;html=1;" vertex="1" parent="BkuPUITBIhkEGpFQvbkD-36">
          <mxGeometry y="104" width="360" height="26" as="geometry" />
        </mxCell>
        <mxCell id="BkuPUITBIhkEGpFQvbkD-71" value="+ monthlyIncome: float" style="text;strokeColor=none;fillColor=none;align=left;verticalAlign=top;spacingLeft=4;spacingRight=4;overflow=hidden;rotatable=0;points=[[0,0.5],[1,0.5]];portConstraint=eastwest;whiteSpace=wrap;html=1;" vertex="1" parent="BkuPUITBIhkEGpFQvbkD-36">
          <mxGeometry y="130" width="360" height="26" as="geometry" />
        </mxCell>
        <mxCell id="BkuPUITBIhkEGpFQvbkD-88" value="+ firebaseService: FirebaseService" style="text;strokeColor=none;fillColor=none;align=left;verticalAlign=top;spacingLeft=4;spacingRight=4;overflow=hidden;rotatable=0;points=[[0,0.5],[1,0.5]];portConstraint=eastwest;whiteSpace=wrap;html=1;" vertex="1" parent="BkuPUITBIhkEGpFQvbkD-36">
          <mxGeometry y="156" width="360" height="26" as="geometry" />
        </mxCell>
        <mxCell id="BkuPUITBIhkEGpFQvbkD-38" value="" style="line;strokeWidth=1;fillColor=none;align=left;verticalAlign=middle;spacingTop=-1;spacingLeft=3;spacingRight=3;rotatable=0;labelPosition=right;points=[];portConstraint=eastwest;strokeColor=inherit;" vertex="1" parent="BkuPUITBIhkEGpFQvbkD-36">
          <mxGeometry y="182" width="360" height="8" as="geometry" />
        </mxCell>
        <mxCell id="BkuPUITBIhkEGpFQvbkD-39" value="+ loginRequired(f): decorated_function" style="text;strokeColor=none;fillColor=none;align=left;verticalAlign=top;spacingLeft=4;spacingRight=4;overflow=hidden;rotatable=0;points=[[0,0.5],[1,0.5]];portConstraint=eastwest;whiteSpace=wrap;html=1;" vertex="1" parent="BkuPUITBIhkEGpFQvbkD-36">
          <mxGeometry y="190" width="360" height="26" as="geometry" />
        </mxCell>
        <mxCell id="BkuPUITBIhkEGpFQvbkD-72" value="+ get_information_user(uid: str): dict" style="text;strokeColor=none;fillColor=none;align=left;verticalAlign=top;spacingLeft=4;spacingRight=4;overflow=hidden;rotatable=0;points=[[0,0.5],[1,0.5]];portConstraint=eastwest;whiteSpace=wrap;html=1;" vertex="1" parent="BkuPUITBIhkEGpFQvbkD-36">
          <mxGeometry y="216" width="360" height="26" as="geometry" />
        </mxCell>
        <mxCell id="BkuPUITBIhkEGpFQvbkD-73" value="+ create_user(): None" style="text;strokeColor=none;fillColor=none;align=left;verticalAlign=top;spacingLeft=4;spacingRight=4;overflow=hidden;rotatable=0;points=[[0,0.5],[1,0.5]];portConstraint=eastwest;whiteSpace=wrap;html=1;" vertex="1" parent="BkuPUITBIhkEGpFQvbkD-36">
          <mxGeometry y="242" width="360" height="26" as="geometry" />
        </mxCell>
        <mxCell id="BkuPUITBIhkEGpFQvbkD-74" value="+ login_user(): tuple[str, dict[str, str | int]" style="text;strokeColor=none;fillColor=none;align=left;verticalAlign=top;spacingLeft=4;spacingRight=4;overflow=hidden;rotatable=0;points=[[0,0.5],[1,0.5]];portConstraint=eastwest;whiteSpace=wrap;html=1;" vertex="1" parent="BkuPUITBIhkEGpFQvbkD-36">
          <mxGeometry y="268" width="360" height="26" as="geometry" />
        </mxCell>
        <mxCell id="BkuPUITBIhkEGpFQvbkD-75" value="+ update_user(): None" style="text;strokeColor=none;fillColor=none;align=left;verticalAlign=top;spacingLeft=4;spacingRight=4;overflow=hidden;rotatable=0;points=[[0,0.5],[1,0.5]];portConstraint=eastwest;whiteSpace=wrap;html=1;" vertex="1" parent="BkuPUITBIhkEGpFQvbkD-36">
          <mxGeometry y="294" width="360" height="26" as="geometry" />
        </mxCell>
        <mxCell id="BkuPUITBIhkEGpFQvbkD-76" value="+ logout_user(): None" style="text;strokeColor=none;fillColor=none;align=left;verticalAlign=top;spacingLeft=4;spacingRight=4;overflow=hidden;rotatable=0;points=[[0,0.5],[1,0.5]];portConstraint=eastwest;whiteSpace=wrap;html=1;" vertex="1" parent="BkuPUITBIhkEGpFQvbkD-36">
          <mxGeometry y="320" width="360" height="26" as="geometry" />
        </mxCell>
        <mxCell id="BkuPUITBIhkEGpFQvbkD-77" value="+ reset_password(): None" style="text;strokeColor=none;fillColor=none;align=left;verticalAlign=top;spacingLeft=4;spacingRight=4;overflow=hidden;rotatable=0;points=[[0,0.5],[1,0.5]];portConstraint=eastwest;whiteSpace=wrap;html=1;" vertex="1" parent="BkuPUITBIhkEGpFQvbkD-36">
          <mxGeometry y="346" width="360" height="26" as="geometry" />
        </mxCell>
        <mxCell id="BkuPUITBIhkEGpFQvbkD-40" value="FinancialPaymentsController" style="swimlane;fontStyle=1;align=center;verticalAlign=top;childLayout=stackLayout;horizontal=1;startSize=26;horizontalStack=0;resizeParent=1;resizeParentMax=0;resizeLast=0;collapsible=1;marginBottom=0;whiteSpace=wrap;html=1;" vertex="1" parent="1">
          <mxGeometry x="1390" y="348" width="400" height="242" as="geometry" />
        </mxCell>
        <mxCell id="BkuPUITBIhkEGpFQvbkD-78" value="+ idUser: str" style="text;strokeColor=none;fillColor=none;align=left;verticalAlign=top;spacingLeft=4;spacingRight=4;overflow=hidden;rotatable=0;points=[[0,0.5],[1,0.5]];portConstraint=eastwest;whiteSpace=wrap;html=1;" vertex="1" parent="BkuPUITBIhkEGpFQvbkD-40">
          <mxGeometry y="26" width="400" height="26" as="geometry" />
        </mxCell>
        <mxCell id="BkuPUITBIhkEGpFQvbkD-41" value="+ typeAccount: str" style="text;strokeColor=none;fillColor=none;align=left;verticalAlign=top;spacingLeft=4;spacingRight=4;overflow=hidden;rotatable=0;points=[[0,0.5],[1,0.5]];portConstraint=eastwest;whiteSpace=wrap;html=1;" vertex="1" parent="BkuPUITBIhkEGpFQvbkD-40">
          <mxGeometry y="52" width="400" height="26" as="geometry" />
        </mxCell>
        <mxCell id="BkuPUITBIhkEGpFQvbkD-79" value="+ meta: float" style="text;strokeColor=none;fillColor=none;align=left;verticalAlign=top;spacingLeft=4;spacingRight=4;overflow=hidden;rotatable=0;points=[[0,0.5],[1,0.5]];portConstraint=eastwest;whiteSpace=wrap;html=1;" vertex="1" parent="BkuPUITBIhkEGpFQvbkD-40">
          <mxGeometry y="78" width="400" height="26" as="geometry" />
        </mxCell>
        <mxCell id="BkuPUITBIhkEGpFQvbkD-89" value="+ firebaseService: FirebaseService" style="text;strokeColor=none;fillColor=none;align=left;verticalAlign=top;spacingLeft=4;spacingRight=4;overflow=hidden;rotatable=0;points=[[0,0.5],[1,0.5]];portConstraint=eastwest;whiteSpace=wrap;html=1;" vertex="1" parent="BkuPUITBIhkEGpFQvbkD-40">
          <mxGeometry y="104" width="400" height="26" as="geometry" />
        </mxCell>
        <mxCell id="BkuPUITBIhkEGpFQvbkD-42" value="" style="line;strokeWidth=1;fillColor=none;align=left;verticalAlign=middle;spacingTop=-1;spacingLeft=3;spacingRight=3;rotatable=0;labelPosition=right;points=[];portConstraint=eastwest;strokeColor=inherit;" vertex="1" parent="BkuPUITBIhkEGpFQvbkD-40">
          <mxGeometry y="130" width="400" height="8" as="geometry" />
        </mxCell>
        <mxCell id="BkuPUITBIhkEGpFQvbkD-43" value="+ getAllPayments(id_user: str): list" style="text;strokeColor=none;fillColor=none;align=left;verticalAlign=top;spacingLeft=4;spacingRight=4;overflow=hidden;rotatable=0;points=[[0,0.5],[1,0.5]];portConstraint=eastwest;whiteSpace=wrap;html=1;" vertex="1" parent="BkuPUITBIhkEGpFQvbkD-40">
          <mxGeometry y="138" width="400" height="26" as="geometry" />
        </mxCell>
        <mxCell id="BkuPUITBIhkEGpFQvbkD-80" value="+ create_payment_accounts(): None" style="text;strokeColor=none;fillColor=none;align=left;verticalAlign=top;spacingLeft=4;spacingRight=4;overflow=hidden;rotatable=0;points=[[0,0.5],[1,0.5]];portConstraint=eastwest;whiteSpace=wrap;html=1;" vertex="1" parent="BkuPUITBIhkEGpFQvbkD-40">
          <mxGeometry y="164" width="400" height="26" as="geometry" />
        </mxCell>
        <mxCell id="BkuPUITBIhkEGpFQvbkD-81" value="+ update_meta_type_account(): None" style="text;strokeColor=none;fillColor=none;align=left;verticalAlign=top;spacingLeft=4;spacingRight=4;overflow=hidden;rotatable=0;points=[[0,0.5],[1,0.5]];portConstraint=eastwest;whiteSpace=wrap;html=1;" vertex="1" parent="BkuPUITBIhkEGpFQvbkD-40">
          <mxGeometry y="190" width="400" height="26" as="geometry" />
        </mxCell>
        <mxCell id="BkuPUITBIhkEGpFQvbkD-82" value="+ delete_type_account(): None" style="text;strokeColor=none;fillColor=none;align=left;verticalAlign=top;spacingLeft=4;spacingRight=4;overflow=hidden;rotatable=0;points=[[0,0.5],[1,0.5]];portConstraint=eastwest;whiteSpace=wrap;html=1;" vertex="1" parent="BkuPUITBIhkEGpFQvbkD-40">
          <mxGeometry y="216" width="400" height="26" as="geometry" />
        </mxCell>
        <mxCell id="BkuPUITBIhkEGpFQvbkD-44" value="FinancialPaymentesLogicController" style="swimlane;fontStyle=1;align=center;verticalAlign=top;childLayout=stackLayout;horizontal=1;startSize=26;horizontalStack=0;resizeParent=1;resizeParentMax=0;resizeLast=0;collapsible=1;marginBottom=0;whiteSpace=wrap;html=1;" vertex="1" parent="1">
          <mxGeometry x="914" y="825" width="395" height="190" as="geometry" />
        </mxCell>
        <mxCell id="BkuPUITBIhkEGpFQvbkD-45" value="+ firebaseService: FirebaseService" style="text;strokeColor=none;fillColor=none;align=left;verticalAlign=top;spacingLeft=4;spacingRight=4;overflow=hidden;rotatable=0;points=[[0,0.5],[1,0.5]];portConstraint=eastwest;whiteSpace=wrap;html=1;" vertex="1" parent="BkuPUITBIhkEGpFQvbkD-44">
          <mxGeometry y="26" width="395" height="26" as="geometry" />
        </mxCell>
        <mxCell id="BkuPUITBIhkEGpFQvbkD-46" value="" style="line;strokeWidth=1;fillColor=none;align=left;verticalAlign=middle;spacingTop=-1;spacingLeft=3;spacingRight=3;rotatable=0;labelPosition=right;points=[];portConstraint=eastwest;strokeColor=inherit;" vertex="1" parent="BkuPUITBIhkEGpFQvbkD-44">
          <mxGeometry y="52" width="395" height="8" as="geometry" />
        </mxCell>
        <mxCell id="BkuPUITBIhkEGpFQvbkD-47" value="+ sum_total_type_account_payments(idUser: str): dict[str, float]" style="text;strokeColor=none;fillColor=none;align=left;verticalAlign=top;spacingLeft=4;spacingRight=4;overflow=hidden;rotatable=0;points=[[0,0.5],[1,0.5]];portConstraint=eastwest;whiteSpace=wrap;html=1;" vertex="1" parent="BkuPUITBIhkEGpFQvbkD-44">
          <mxGeometry y="60" width="395" height="26" as="geometry" />
        </mxCell>
        <mxCell id="BkuPUITBIhkEGpFQvbkD-90" value="+ sum_total_balance(idUser: str): float" style="text;strokeColor=none;fillColor=none;align=left;verticalAlign=top;spacingLeft=4;spacingRight=4;overflow=hidden;rotatable=0;points=[[0,0.5],[1,0.5]];portConstraint=eastwest;whiteSpace=wrap;html=1;" vertex="1" parent="BkuPUITBIhkEGpFQvbkD-44">
          <mxGeometry y="86" width="395" height="26" as="geometry" />
        </mxCell>
        <mxCell id="BkuPUITBIhkEGpFQvbkD-91" value="+ verify_type_account_not_pay(idUser: str): dict[str, list[str]]" style="text;strokeColor=none;fillColor=none;align=left;verticalAlign=top;spacingLeft=4;spacingRight=4;overflow=hidden;rotatable=0;points=[[0,0.5],[1,0.5]];portConstraint=eastwest;whiteSpace=wrap;html=1;" vertex="1" parent="BkuPUITBIhkEGpFQvbkD-44">
          <mxGeometry y="112" width="395" height="26" as="geometry" />
        </mxCell>
        <mxCell id="BkuPUITBIhkEGpFQvbkD-92" value="+ verify_accounts_payments_date(idUser: str): dict[str, list[str]]" style="text;strokeColor=none;fillColor=none;align=left;verticalAlign=top;spacingLeft=4;spacingRight=4;overflow=hidden;rotatable=0;points=[[0,0.5],[1,0.5]];portConstraint=eastwest;whiteSpace=wrap;html=1;" vertex="1" parent="BkuPUITBIhkEGpFQvbkD-44">
          <mxGeometry y="138" width="395" height="26" as="geometry" />
        </mxCell>
        <mxCell id="BkuPUITBIhkEGpFQvbkD-93" value="+ all_payments_per_type_account(idUser: str): dict[str, list[dict[str, float]]" style="text;strokeColor=none;fillColor=none;align=left;verticalAlign=top;spacingLeft=4;spacingRight=4;overflow=hidden;rotatable=0;points=[[0,0.5],[1,0.5]];portConstraint=eastwest;whiteSpace=wrap;html=1;" vertex="1" parent="BkuPUITBIhkEGpFQvbkD-44">
          <mxGeometry y="164" width="395" height="26" as="geometry" />
        </mxCell>
        <mxCell id="BkuPUITBIhkEGpFQvbkD-96" style="edgeStyle=orthogonalEdgeStyle;rounded=0;orthogonalLoop=1;jettySize=auto;html=1;entryX=0.5;entryY=0;entryDx=0;entryDy=0;endArrow=diamondThin;endFill=0;" edge="1" parent="1" source="BkuPUITBIhkEGpFQvbkD-27" target="BkuPUITBIhkEGpFQvbkD-32">
          <mxGeometry relative="1" as="geometry" />
        </mxCell>
        <mxCell id="BkuPUITBIhkEGpFQvbkD-97" style="edgeStyle=orthogonalEdgeStyle;rounded=0;orthogonalLoop=1;jettySize=auto;html=1;endArrow=diamondThin;endFill=0;" edge="1" parent="1" source="BkuPUITBIhkEGpFQvbkD-27" target="BkuPUITBIhkEGpFQvbkD-44">
          <mxGeometry relative="1" as="geometry" />
        </mxCell>
        <mxCell id="BkuPUITBIhkEGpFQvbkD-98" style="edgeStyle=orthogonalEdgeStyle;rounded=0;orthogonalLoop=1;jettySize=auto;html=1;entryX=0.499;entryY=1.022;entryDx=0;entryDy=0;entryPerimeter=0;endArrow=diamondThin;endFill=0;" edge="1" parent="1" source="BkuPUITBIhkEGpFQvbkD-27" target="BkuPUITBIhkEGpFQvbkD-82">
          <mxGeometry relative="1" as="geometry" />
        </mxCell>
        <mxCell id="BkuPUITBIhkEGpFQvbkD-100" style="edgeStyle=orthogonalEdgeStyle;rounded=0;orthogonalLoop=1;jettySize=auto;html=1;endArrow=diamondThin;endFill=0;" edge="1" parent="1" source="BkuPUITBIhkEGpFQvbkD-27" target="BkuPUITBIhkEGpFQvbkD-37">
          <mxGeometry relative="1" as="geometry" />
        </mxCell>
        <mxCell id="BkuPUITBIhkEGpFQvbkD-101" style="edgeStyle=orthogonalEdgeStyle;rounded=0;orthogonalLoop=1;jettySize=auto;html=1;entryX=0.007;entryY=0.129;entryDx=0;entryDy=0;entryPerimeter=0;endArrow=open;endFill=0;" edge="1" parent="1" source="BkuPUITBIhkEGpFQvbkD-10" target="BkuPUITBIhkEGpFQvbkD-37">
          <mxGeometry relative="1" as="geometry" />
        </mxCell>
        <mxCell id="BkuPUITBIhkEGpFQvbkD-102" style="edgeStyle=orthogonalEdgeStyle;rounded=0;orthogonalLoop=1;jettySize=auto;html=1;entryX=0.26;entryY=1.011;entryDx=0;entryDy=0;entryPerimeter=0;endArrow=open;endFill=0;" edge="1" parent="1" source="BkuPUITBIhkEGpFQvbkD-14" target="BkuPUITBIhkEGpFQvbkD-82">
          <mxGeometry relative="1" as="geometry" />
        </mxCell>
        <mxCell id="BkuPUITBIhkEGpFQvbkD-103" style="edgeStyle=orthogonalEdgeStyle;rounded=0;orthogonalLoop=1;jettySize=auto;html=1;entryX=0;entryY=0.5;entryDx=0;entryDy=0;endArrow=open;endFill=0;" edge="1" parent="1" source="BkuPUITBIhkEGpFQvbkD-18" target="BkuPUITBIhkEGpFQvbkD-86">
          <mxGeometry relative="1" as="geometry" />
        </mxCell>
        <mxCell id="BkuPUITBIhkEGpFQvbkD-104" value="1,1" style="text;html=1;align=center;verticalAlign=middle;whiteSpace=wrap;rounded=0;" vertex="1" parent="1">
          <mxGeometry x="1340" y="1000" width="60" height="30" as="geometry" />
        </mxCell>
        <mxCell id="BkuPUITBIhkEGpFQvbkD-105" value="1,1" style="text;html=1;align=center;verticalAlign=middle;whiteSpace=wrap;rounded=0;" vertex="1" parent="1">
          <mxGeometry x="1440" y="610" width="60" height="30" as="geometry" />
        </mxCell>
        <mxCell id="BkuPUITBIhkEGpFQvbkD-106" value="1,1" style="text;html=1;align=center;verticalAlign=middle;whiteSpace=wrap;rounded=0;" vertex="1" parent="1">
          <mxGeometry x="880" y="220" width="60" height="30" as="geometry" />
        </mxCell>
      </root>
    </mxGraphModel>
  </diagram>
</mxfile>
